<svg xmlns="http://www.w3.org/2000/svg" xmlns:xlink="http://www.w3.org/1999/xlink" width="60" zoomAndPan="magnify" viewBox="0 0 45 44.999999" height="60" preserveAspectRatio="xMidYMid meet" version="1.0"><path fill="rgb(54.899597%, 32.159424%, 100%)" d="M 38.503906 22.878906 L 26.867188 36.207031 L 23.746094 32.632812 L 32.261719 22.878906 L 13.871094 1.808594 C 15.066406 1.300781 16.3125 0.894531 17.601562 0.59375 C 17.679688 0.574219 17.757812 0.558594 17.839844 0.539062 C 17.847656 0.539062 17.859375 0.535156 17.871094 0.53125 C 17.972656 0.511719 18.074219 0.488281 18.171875 0.46875 C 18.179688 0.46875 18.183594 0.464844 18.1875 0.464844 C 19.675781 0.160156 21.214844 0 22.792969 0 C 35.136719 0 45.199219 9.78125 45.652344 22.011719 C 45.652344 22.011719 38.503906 4.625 22.792969 4.625 C 22.71875 4.625 22.644531 4.628906 22.574219 4.628906 L 38.503906 22.878906 " fill-opacity="1" fill-rule="nonzero"/><path fill="rgb(54.899597%, 32.159424%, 100%)" d="M 30.015625 39.8125 C 40.710938 35.757812 45.652344 23.742188 45.652344 23.742188 C 45.335938 32.308594 40.304688 39.675781 33.074219 43.316406 L 30.015625 39.8125 " fill-opacity="1" fill-rule="nonzero"/><path fill="rgb(13.729858%, 23.919678%, 100%)" d="M -0.0664062 23.742188 C -0.0664062 23.742188 7.082031 41.128906 22.792969 41.128906 C 22.867188 41.128906 22.941406 41.125 23.015625 41.125 L 7.082031 22.878906 L 18.71875 9.546875 L 21.839844 13.121094 L 13.324219 22.878906 L 31.714844 43.945312 C 30.519531 44.453125 29.273438 44.863281 27.984375 45.160156 C 27.90625 45.179688 27.828125 45.195312 27.75 45.214844 C 27.738281 45.214844 27.726562 45.21875 27.714844 45.222656 C 27.613281 45.242188 27.511719 45.265625 27.414062 45.285156 C 27.40625 45.285156 27.402344 45.289062 27.398438 45.289062 C 25.910156 45.59375 24.371094 45.753906 22.792969 45.753906 C 10.449219 45.753906 0.386719 35.976562 -0.0664062 23.742188 " fill-opacity="1" fill-rule="nonzero"/><path fill="rgb(13.729858%, 23.919678%, 100%)" d="M 15.570312 5.941406 C 4.875 9.996094 -0.0664062 22.011719 -0.0664062 22.011719 C 0.25 13.445312 5.285156 6.082031 12.511719 2.4375 L 15.570312 5.941406 " fill-opacity="1" fill-rule="nonzero"/></svg>